<svg data-v-0dd9719b="" version="1.0" xmlns="http://www.w3.org/2000/svg" xmlns:xlink="http://www.w3.org/1999/xlink" width="100%" height="100%" viewBox="0 0 60.000003814697266 65.6225357055664" preserveAspectRatio="xMidYMid meet" color-interpolation-filters="sRGB" style="margin: auto;"> <rect data-v-0dd9719b="" x="0" y="0" width="100%" height="100%" fill="#fff" fill-opacity="1" class="background" style="display: none;"></rect> <rect data-v-0dd9719b="" x="0" y="0" width="100%" height="100%" fill="url(#watermark)" fill-opacity="1" class="watermarklayer" style="display: none;"></rect> <g data-v-0dd9719b="" class="imagesvg isNoFont"><g><rect fill="#19381F" fill-opacity="0" stroke-width="2" x="0" y="0" width="60" height="65.62253915478169" class="image-rect"></rect> <svg x="0" y="0" width="60" height="65.62253915478169" filtersec="colorsb669905246" class="image-svg-svg primary" style="overflow: visible;"><svg xmlns="http://www.w3.org/2000/svg" viewBox="-0.01269830483943224 -0.00024930789368227124 91.43269348144531 100.00025177001953"><title>资源 274</title><path d="M62.57 87.72A16.54 16.54 0 0 1 68 75.44H50.86c-13.94 0-25.73-10.83-26.14-24.67a25.55 25.55 0 0 1 25.59-26.22h17.77V16.9v-.59A16.82 16.82 0 0 0 67 10.94 17 17 0 0 0 51.07 0h-.76c-8 .27-13.73 1.1-22.17 4.66A45 45 0 0 0 5.19 26.39a54.29 54.29 0 0 0-5.13 26A48.5 48.5 0 0 0 5.78 73.1c5 9.43 13.82 17 23.53 21.72a55.46 55.46 0 0 0 6.56 2.68l.52.18 1 .31a43.6 43.6 0 0 0 7.77 1.64h.22c.73.09 1.48.15 2.25.2.29 0 .59 0 .89.06.73 0 1.48.06 2.24.07H68a16.53 16.53 0 0 1-5.43-12.24z" fill="#E6C229"></path><path d="M0 49.44C0 25.23 14.83 7 37.25 1.6a60.53 60.53 0 0 1 14-1.6h40.17a27.2 27.2 0 0 1-27.17 24.94L52.51 25a30.22 30.22 0 0 0-4 .25 38.45 38.45 0 0 0-19.2 69.57C11.43 87.37 0 70.61 0 49.44z" fill="#19381F"></path><circle cx="79.14" cy="87.72" r="12.28" fill="#19381F"></circle></svg></svg> <!----></g></g><defs v-gra="od"></defs></svg>