<?xml version="1.0" encoding="utf-8"?>
<svg height="22" version="1.1" width="178" xmlns="http://www.w3.org/2000/svg" viewBox="0 0 178 22">
  <g>
    <g transform="matrix(1,0,0,1,0,0)">
      <path d="M11.61-21.12Q13.35-21.12 14.58-20.62Q15.81-20.12 16.98-19.22L16.98-19.22Q17.29-18.96 17.55-18.96L17.55-18.96Q18.13-18.96 18.30-20.70L18.30-20.70L18.98-20.70Q18.86-18.70 18.86-13.62L18.86-13.62L18.18-13.62Q18.00-15.09 17.78-16.01Q17.56-16.92 17.14-17.63Q16.72-18.33 15.98-18.92L15.98-18.92Q15.26-19.62 14.30-19.99Q13.34-20.36 12.28-20.36L12.28-20.36Q10.28-20.36 8.97-18.98Q7.67-17.59 7.06-15.31Q6.45-13.04 6.45-10.29L6.45-10.29Q6.45-7.55 7.09-5.29Q7.72-3.03 9.06-1.66Q10.39-0.30 12.39-0.30L12.39-0.30Q13.39-0.30 14.37-0.66Q15.35-1.03 16.03-1.71L16.03-1.71Q16.78-2.28 17.19-3.04Q17.60-3.80 17.82-4.80Q18.03-5.80 18.18-7.37L18.18-7.37L18.86-7.37Q18.86-2.07 18.98 0L18.98 0L18.30 0Q18.22-0.91 18.05-1.32Q17.89-1.73 17.59-1.73L17.59-1.73Q17.35-1.73 16.98-1.48L16.98-1.48Q16.12-0.87 15.38-0.48Q14.65-0.09 13.71 0.16Q12.76 0.41 11.58 0.41L11.58 0.41Q8.48 0.41 6.15-0.84Q3.81-2.10 2.53-4.49Q1.26-6.88 1.26-10.18L1.26-10.18Q1.26-13.41 2.57-15.89Q3.88-18.38 6.24-19.75Q8.60-21.12 11.61-21.12L11.61-21.12ZM28.93-21.07Q30.45-21.07 31.37-20.78Q32.28-20.49 33.20-19.95L33.20-19.95Q33.88-19.53 34.18-19.53L34.18-19.53Q34.45-19.53 34.60-19.83Q34.74-20.13 34.84-20.82L34.84-20.82L35.51-20.82Q35.35-19.00 35.35-14.15L35.35-14.15L34.68-14.15Q34.58-15.75 33.98-17.17Q33.38-18.59 32.29-19.48Q31.20-20.37 29.71-20.37L29.71-20.37Q28.77-20.37 28.04-20.01Q27.31-19.65 26.91-18.98Q26.50-18.30 26.50-17.39L26.50-17.39Q26.50-16.36 26.96-15.61Q27.41-14.85 28.22-14.21Q29.03-13.56 30.71-12.44L30.71-12.44Q31.20-12.14 31.55-11.88L31.55-11.88Q33.25-10.75 34.25-9.89Q35.25-9.04 35.87-7.91Q36.49-6.78 36.49-5.28L36.49-5.28Q36.49-3.43 35.52-2.14Q34.55-0.86 32.91-0.22Q31.27 0.41 29.24 0.41L29.24 0.41Q27.61 0.41 26.54 0.12Q25.47-0.17 24.54-0.67L24.54-0.67Q23.89-1.09 23.54-1.09L23.54-1.09Q23.27-1.09 23.13-0.78Q22.99-0.47 22.90 0.20L22.90 0.20L22.23 0.20Q22.34-1.63 22.34-7.70L22.34-7.70L23.02-7.70Q23.22-4.43 24.47-2.39Q25.73-0.36 28.34-0.36L28.34-0.36Q29.38-0.36 30.20-0.73Q31.03-1.10 31.50-1.83Q31.97-2.57 31.97-3.63L31.97-3.63Q31.97-4.77 31.43-5.68Q30.90-6.60 29.99-7.35Q29.08-8.10 27.58-9.07L27.58-9.07Q25.83-10.18 24.78-11.03Q23.73-11.88 23.05-13.04Q22.37-14.21 22.37-15.73L22.37-15.73Q22.37-17.50 23.27-18.70Q24.17-19.90 25.66-20.49Q27.14-21.07 28.93-21.07L28.93-21.07ZM46.00-21.07Q47.53-21.07 48.44-20.78Q49.36-20.49 50.27-19.95L50.27-19.95Q50.96-19.53 51.26-19.53L51.26-19.53Q51.53-19.53 51.67-19.83Q51.81-20.13 51.91-20.82L51.91-20.82L52.59-20.82Q52.43-19.00 52.43-14.15L52.43-14.15L51.76-14.15Q51.66-15.75 51.06-17.17Q50.46-18.59 49.37-19.48Q48.27-20.37 46.79-20.37L46.79-20.37Q45.85-20.37 45.12-20.01Q44.39-19.65 43.98-18.98Q43.58-18.30 43.58-17.39L43.58-17.39Q43.58-16.36 44.03-15.61Q44.49-14.85 45.30-14.21Q46.10-13.56 47.79-12.44L47.79-12.44Q48.27-12.14 48.63-11.88L48.63-11.88Q50.33-10.75 51.33-9.89Q52.33-9.04 52.95-7.91Q53.57-6.78 53.57-5.28L53.57-5.28Q53.57-3.43 52.60-2.14Q51.63-0.86 49.99-0.22Q48.34 0.41 46.32 0.41L46.32 0.41Q44.69 0.41 43.62 0.12Q42.55-0.17 41.62-0.67L41.62-0.67Q40.96-1.09 40.62-1.09L40.62-1.09Q40.35-1.09 40.21-0.78Q40.06-0.47 39.98 0.20L39.98 0.20L39.31 0.20Q39.42-1.63 39.42-7.70L39.42-7.70L40.09-7.70Q40.29-4.43 41.55-2.39Q42.80-0.36 45.42-0.36L45.42-0.36Q46.46-0.36 47.28-0.73Q48.10-1.10 48.57-1.83Q49.04-2.57 49.04-3.63L49.04-3.63Q49.04-4.77 48.51-5.68Q47.97-6.60 47.07-7.35Q46.16-8.10 44.66-9.07L44.66-9.07Q42.90-10.18 41.86-11.03Q40.81-11.88 40.13-13.04Q39.45-14.21 39.45-15.73L39.45-15.73Q39.45-17.50 40.35-18.70Q41.25-19.90 42.73-20.49Q44.22-21.07 46.00-21.07L46.00-21.07ZM80.93-20.12Q79.94-20.07 79.50-19.89Q79.06-19.70 78.89-19.20Q78.73-18.70 78.73-17.60L78.73-17.60L78.73-3.10Q78.73-2.00 78.89-1.50Q79.06-1.00 79.50-0.81Q79.94-0.63 80.93-0.59L80.93-0.59L80.93 0Q79.30-0.09 76.33-0.09L76.33-0.09Q73.20-0.09 71.70 0L71.70 0L71.70-0.59Q72.76-0.63 73.24-0.81Q73.72-1.00 73.89-1.50Q74.07-2.00 74.07-3.10L74.07-3.10L74.07-18.32L67.03 0.04L66.56 0.04L58.67-18.82L58.67-4.80Q58.67-3.06 58.85-2.26Q59.02-1.46 59.61-1.09Q60.20-0.71 61.51-0.59L61.51-0.59L61.51 0Q60.38-0.09 58.34-0.09L58.34-0.09Q56.73-0.09 55.80 0L55.80 0L55.80-0.59Q56.75-0.71 57.21-1.08Q57.67-1.44 57.83-2.20Q58.00-2.96 58.00-4.44L58.00-4.44L58.00-17.60Q58.00-18.70 57.83-19.20Q57.67-19.70 57.23-19.89Q56.78-20.07 55.80-20.12L55.80-20.12L55.80-20.70Q56.73-20.62 58.34-20.62L58.34-20.62Q61.05-20.62 62.97-20.70L62.97-20.70L68.86-6.48L74.26-20.62L76.33-20.62Q79.30-20.62 80.93-20.70L80.93-20.70L80.93-20.12ZM99.76-2.46Q100.13-1.48 100.62-1.05Q101.12-0.61 101.60-0.59L101.60-0.59L101.60 0Q99.86-0.09 97.16-0.09L97.16-0.09Q94.16-0.09 92.71 0L92.71 0L92.71-0.59Q93.81-0.63 94.28-0.86Q94.76-1.09 94.76-1.66L94.76-1.66Q94.76-2.17 94.42-3.04L94.42-3.04L92.66-7.84L86.31-7.84L85.52-5.81Q84.72-3.76 84.72-2.57L84.72-2.57Q84.72-1.48 85.37-1.05Q86.02-0.61 87.32-0.59L87.32-0.59L87.32 0Q85.32-0.09 83.68-0.09L83.68-0.09Q82.31-0.09 81.44 0L81.44 0L81.44-0.59Q82.91-0.86 83.98-3.66L83.98-3.66L90.64-20.76Q91.11-20.72 91.65-20.72L91.65-20.72Q92.19-20.72 92.66-20.76L92.66-20.76L99.76-2.46ZM92.45-8.42L89.55-16.29L86.52-8.42L92.45-8.42ZM121.62-1.29Q120.83-0.39 119.93 0.01Q119.02 0.41 117.73 0.41L117.73 0.41Q116.06 0.41 115.08-0.30Q114.09-1.01 113.78-2.76L113.78-2.76L113.27-5.67Q113.02-7.10 112.74-7.95Q112.45-8.81 111.93-9.32Q111.41-9.82 110.54-9.82L110.54-9.82L108.64-9.82L108.64-3.10Q108.64-2.00 108.80-1.50Q108.97-1.00 109.41-0.81Q109.85-0.63 110.84-0.59L110.84-0.59L110.84 0Q109.25-0.09 106.41-0.09L106.41-0.09Q103.29-0.09 101.80 0L101.80 0L101.80-0.59Q102.79-0.63 103.22-0.81Q103.66-1.00 103.82-1.50Q103.99-2.00 103.99-3.10L103.99-3.10L103.99-17.60Q103.99-18.70 103.82-19.20Q103.66-19.70 103.21-19.89Q102.77-20.07 101.80-20.12L101.80-20.12L101.80-20.70Q103.29-20.62 106.24-20.62L106.24-20.62Q106.78-20.62 109.52-20.66L109.52-20.66L110.84-20.67Q114.86-20.67 116.90-19.35Q118.93-18.03 118.93-15.59L118.93-15.59Q118.93-14.28 118.32-13.11Q117.71-11.94 116.24-11.07Q114.78-10.21 112.37-9.94L112.37-9.94L112.38-9.94Q114.15-9.78 115.29-9.34Q116.44-8.90 117.08-8.10Q117.73-7.31 117.99-6.08L117.99-6.08L118.65-3.07Q118.89-1.88 119.19-1.43Q119.49-0.97 120.03-0.97L120.03-0.97Q120.39-0.97 120.65-1.13Q120.92-1.29 121.22-1.64L121.22-1.64L121.62-1.29ZM110.45-20.12Q109.68-20.12 109.30-19.91Q108.93-19.70 108.78-19.18Q108.64-18.65 108.64-17.60L108.64-17.60L108.64-10.41L109.90-10.41Q111.54-10.41 112.46-11.04Q113.38-11.66 113.73-12.72Q114.08-13.78 114.08-15.26L114.08-15.26Q114.08-17.66 113.23-18.89Q112.38-20.12 110.45-20.12L110.45-20.12ZM140.11-2.37Q140.54-1.68 141.00-1.28Q141.46-0.87 142.21-0.59L142.21-0.59L142.21 0Q140.18-0.09 137.64-0.09L137.64-0.09Q135.71-0.09 133.93 0L133.93 0L133.93-0.59Q134.75-0.61 135.12-0.75Q135.48-0.89 135.48-1.17L135.48-1.17Q135.48-1.38 135.18-1.90L135.18-1.90L130.93-8.77Q130.51-9.42 130.22-9.75Q129.93-10.08 129.63-10.22Q129.33-10.35 128.87-10.39L128.87-10.39L128.87-3.10Q128.87-2.00 129.04-1.50Q129.20-1.00 129.64-0.81Q130.08-0.63 131.07-0.59L131.07-0.59L131.07 0Q129.49-0.09 126.64-0.09L126.64-0.09Q123.52-0.09 122.03 0L122.03 0L122.03-0.59Q123.02-0.63 123.45-0.81Q123.89-1.00 124.05-1.50Q124.22-2.00 124.22-3.10L124.22-3.10L124.22-17.60Q124.22-18.70 124.05-19.20Q123.89-19.70 123.45-19.89Q123.00-20.07 122.03-20.12L122.03-20.12L122.03-20.70Q123.52-20.62 126.64-20.62L126.64-20.62Q129.49-20.62 131.07-20.70L131.07-20.70L131.07-20.12Q130.08-20.07 129.64-19.89Q129.20-19.70 129.04-19.20Q128.87-18.70 128.87-17.60L128.87-17.60L128.87-11.02Q130.03-11.09 131.02-11.74Q132.01-12.38 133.21-13.76L133.21-13.76L134.93-15.85Q136.27-17.43 136.27-18.56L136.27-18.56Q136.27-19.29 135.70-19.70Q135.14-20.10 134.13-20.13L134.13-20.13L134.13-20.70Q136.27-20.62 138.44-20.62L138.44-20.62Q140.14-20.62 141.21-20.70L141.21-20.70L141.21-20.13Q138.88-19.63 136.95-17.35L136.95-17.35L133.30-12.99L140.11-2.37ZM158.94-4.44Q158.94-2.06 159.14 0L159.14 0Q157.16-0.09 152.44-0.09L152.44-0.09Q146.10-0.09 142.92 0L142.92 0L142.92-0.59Q143.91-0.63 144.34-0.81Q144.78-1.00 144.94-1.50Q145.11-2.00 145.11-3.10L145.11-3.10L145.11-17.60Q145.11-18.70 144.94-19.20Q144.78-19.70 144.33-19.89Q143.89-20.07 142.92-20.12L142.92-20.12L142.92-20.70Q146.10-20.62 152.44-20.62L152.44-20.62Q156.76-20.62 158.55-20.70L158.55-20.70Q158.35-18.29 158.35-16.38L158.35-16.38Q158.35-15.11 158.44-14.39L158.44-14.39L157.77-14.39Q157.48-16.51 156.87-17.74Q156.26-18.98 155.31-19.50Q154.36-20.03 152.97-20.03L152.97-20.03L151.77-20.03Q150.87-20.03 150.47-19.89Q150.06-19.75 149.91-19.32Q149.76-18.89 149.76-17.95L149.76-17.95L149.76-10.71L150.70-10.71Q152.27-10.71 153.07-11.85Q153.87-12.99 154.19-14.56L154.19-14.56L154.86-14.56Q154.76-13.12 154.76-11.81L154.76-11.81L154.77-10.41Q154.77-8.92 154.94-6.25L154.94-6.25L154.27-6.25Q153.70-10.12 150.70-10.12L150.70-10.12L149.76-10.12L149.76-2.76Q149.76-1.81 149.91-1.38Q150.06-0.96 150.47-0.81Q150.87-0.67 151.77-0.67L151.77-0.67L153.21-0.67Q154.59-0.67 155.59-1.26Q156.60-1.86 157.30-3.23Q158.00-4.60 158.35-6.90L158.35-6.90L159.03-6.90Q158.94-5.95 158.94-4.44L158.94-4.44ZM179.26-20.70Q179.04-17.99 179.04-15.73L179.04-15.73Q179.04-14.32 179.13-13.51L179.13-13.51L178.46-13.51Q177.97-15.96 177.27-17.38Q176.57-18.80 175.59-19.42Q174.60-20.03 173.20-20.03L173.20-20.03L172.56-20.03L172.56-3.34Q172.56-2.11 172.80-1.56Q173.05-1.00 173.68-0.80Q174.32-0.60 175.69-0.59L175.69-0.59L175.69 0Q173.20-0.09 170.12-0.09L170.12-0.09Q167.09-0.09 164.78 0L164.78 0L164.78-0.59Q166.15-0.60 166.79-0.80Q167.42-1.00 167.66-1.56Q167.91-2.11 167.91-3.34L167.91-3.34L167.91-20.03L167.26-20.03Q165.85-20.03 164.87-19.42Q163.89-18.80 163.20-17.38Q162.50-15.96 162.00-13.51L162.00-13.51L161.32-13.51Q161.41-14.32 161.41-15.73L161.41-15.73Q161.41-17.92 161.21-20.70L161.21-20.70Q163.85-20.62 170.25-20.62L170.25-20.62Q176.62-20.62 179.26-20.70L179.26-20.70Z" transform="translate(-1.2564448322360593, 21.1200008392334)" style="fill: rgb(25, 56, 31);"/>
    </g>
  </g>
</svg>